<svg viewBox="0 0 637 504" xmlns="http://www.w3.org/2000/svg"><path fill="none" d="M-1 -1H581V401H-1z"></path><g><g fill-rule="nonzero" fill="none"><path fill="#0079BE" d="m372.69,504.00288c137.75,0.65612 263.48,-112.34388 263.48,-249.81288c0,-150.33 -125.73,-254.24 -263.48,-254.19002l-118.55,0c-139.4,-0.04998 -254.14,103.89102 -254.14,254.19002c0,137.499 114.74,250.47 254.14,249.81288l118.55,0z"></path><path fill="#FFF" d="m254.701,20.83c-127.38,0.04 -230.6,103.29 -230.63,230.721c0.03,127.409 103.249,230.649 230.63,230.689c127.41,-0.04 230.651,-103.28 230.669,-230.689c-0.019,-127.431 -103.259,-230.681 -230.669,-230.721zm-146.19,230.721l0,0c0.12,-62.27 39.01,-115.37 93.85,-136.471l0,272.91c-54.84,-21.089 -93.731,-74.16 -93.85,-136.439zm198.51,136.499l0,0l0,-272.979c54.86,21.05 93.81,74.18 93.91,136.48c-0.1,62.319 -39.05,115.409 -93.91,136.499z"></path><path fill="#0079BE" d="m372.69,504.00288c137.75,0.65612 263.48,-112.34388 263.48,-249.81288c0,-150.33 -125.73,-254.24 -263.48,-254.19002l-118.55,0c-139.4,-0.04998 -254.14,103.89102 -254.14,254.19002c0,137.499 114.74,250.47 254.14,249.81288l118.55,0z"></path><path fill="#FFF" d="m254.701,20.83c-127.38,0.04 -230.6,103.29 -230.63,230.721c0.03,127.409 103.249,230.649 230.63,230.689c127.41,-0.04 230.651,-103.28 230.669,-230.689c-0.019,-127.431 -103.259,-230.681 -230.669,-230.721zm-146.19,230.721l0,0c0.12,-62.27 39.01,-115.37 93.85,-136.471l0,272.91c-54.84,-21.089 -93.731,-74.16 -93.85,-136.439zm198.51,136.499l0,0l0,-272.979c54.86,21.05 93.81,74.18 93.91,136.48c-0.1,62.319 -39.05,115.409 -93.91,136.499z"></path></g></g></svg>